<?xml version="1.0" encoding="utf-8"?>
<!-- Generator: Adobe Illustrator 21.0.0, SVG Export Plug-In . SVG Version: 6.00 Build 0)  -->
<svg version="1.1" id="Слой_1" xmlns="http://www.w3.org/2000/svg" xmlns:xlink="http://www.w3.org/1999/xlink" x="0px" y="0px"
	 width="516px" height="102.3px" viewBox="0 0 516 102.3" style="enable-background:new 0 0 516 102.3;" xml:space="preserve">
<style type="text/css">
	.st0{fill:#E05C5C;}
	.st1{fill:#FEFEFE;}
	.st2{fill:none;stroke:#E05C5C;stroke-width:4;}
</style>
<g>
	<path class="st0" d="M440.4,100.9V33.7h7.8v67.2H440.4z"/>
	<path class="st0" d="M511.3,100.9h-8.9l-18.1-29.5L466,100.9h-8.3l22.3-35.1l-20.8-32.1h8.6l16.7,26.6l16.8-26.6h8.3l-20.8,31.8
		L511.3,100.9z"/>
</g>
<g id="Слой_x0020_1">
	<g id="_360545144">
		<path class="st1" d="M301.6,43.9l-4.2-3.8c-1.4-1.1-3.2-2.3-4.9-3.1c-10-5-21.4-5.1-31.4-0.1c-3.2,1.6-7.1,4.3-9.4,7
			c-2.5,2.9-4.7,6.2-6.3,10.1c-1.6,3.9-2.9,9.3-2.9,13.5c0,12.6,8,26.5,19.7,31.3c2.2,0.9,3.8,1.6,6.3,2.2
			c8.4,1.9,14.1,1.3,21.7-1.8C310.4,91.2,318.6,63.4,301.6,43.9z M277.1,94.6C261.9,94.6,250,82.5,250,68c0-10.4,5.1-19.1,14.1-24.1
			c9.7-5.4,23.5-3.6,31.6,4.7C312.3,65.6,300,94.6,277.1,94.6z M48,69.3c-9-6.4-35.1-7.3-33.6-19.1c0.9-7.5,6.6-9.8,13.6-9.7
			c9.3,0.1,11.5,3.4,18.3,8c0.9,0.4,2.2-0.7,3.4-1.8c1.4-1.3,1.8-2.1,1.5-2.6c-1.8-3.3-6.4-6.5-10.1-8.1
			C25.4,29.2,6.2,35.4,6.2,51.1c0,11.4,10,15.2,20.3,17.9c3.1,0.8,6.5,1.7,9.7,2.7c6,2,12,5.3,9.7,13.3c-2.1,7-10.7,9.6-17.5,9.6
			c-4.6,0-11.8-3.4-15.2-6.1c-1.5-1.2-2.4-2.6-3.9-3.6c-1.5,0.4-4.9,2.2-4.9,4.5c0,3.3,11.6,12.4,21.8,12.4c8.3,0,13.5-0.2,20.7-5.5
			C54.5,90.6,57.1,75.9,48,69.3z M112.8,34.2c-1.8,0-1.4,1.7-1.3,3.5l0,34.7c-0.1,11.8-6.7,22.2-17.8,22.2c-5.5,0-9.8,0.1-14.7-3.9
			c-0.5-0.4-0.7-0.6-1.1-1.1l-1.2-1.4c-7.1-8.7-5.1-22.3-5.1-33.9V35.8c0-0.8-0.7-1.5-1.5-1.5h-4.5c-0.8,0-1.5,0.7-1.5,1.5v35.4
			c0,10.5,2.3,16.2,7.2,22.1c9.2,11,25.6,11.6,36.5,4.4c6.5-4.3,10.8-11.7,10.8-20.6V35.6C118.6,33.7,116.9,34.2,112.8,34.2z
			 M227.4,39.1c-3.9-3.1-6.7-4.2-11.9-4.8c-0.7-0.1-1.7,0-2.5,0h-19.9c-2.6,0-3.5,0-3.5,1.6v63.5c0,0.8,0.7,1.5,1.5,1.5h4.5
			c0.8,0,1.5-0.7,1.5-1.5V77.1c0-0.8,0.4-1.5,1.3-1.5c1.2,0,1.9,0,3.1,0c13.4,0.1,24.5,1.3,30.8-11.8
			C236.8,54.6,233.2,43.7,227.4,39.1z M211.4,68.4h-12.9c-1,0-1.8-0.7-1.8-1.8v-24c0-1,0.3-1.3,1.3-1.3h15.5
			c5.4,0,10.3,4.2,11.9,7.2C229.7,57.1,224.6,68.4,211.4,68.4z M368.3,93.9l-9.4-19.6c5.6-1.5,12.3-10.1,12.3-17
			c0-7.6-1.3-14-7.8-18.8c-4.9-3.7-9.6-4.7-18-4.7h-19.1c-1.6,0-3.6,0.2-3.6,1.8V87h0v12.3c0,0.8,0.6,1.5,1.4,1.5h4.3
			c0.8,0,1.4-0.7,1.4-1.5v-5h0c0-1.6,0-3.6,0-5.9V87c0-1.3,0-2.8,0-4.4c0.1-1.5,0-3,0-4.4c0-1-0.1-1.7,1.2-1.8c0.7-0.1,1.7,0,2.5,0
			h17c0.4,0,0.7,0,0.8,0.1c0.2,0,0.7,0.3,1,0.7l9.2,19c1.4,3,1.7,4.6,3.7,4.6l4.3,0c1.8,0,1.5-0.8,1-2
			C370,97.3,369.1,95.8,368.3,93.9z M351.7,68.9h-20.6c-0.8,0-1.2-0.6-1.2-1.2v-25c0-1,0.3-1.3,1.3-1.3h19.1
			c11.7,0,18.5,14.6,9.9,23.2C358.3,66.5,355.3,68.9,351.7,68.9z M427.6,35.6c0-1.6-2-1.8-3.5-1.8h-42.6c-1.6,0-3.5,0.2-3.5,1.8
			c0,5-0.7,5.8,2.4,5.8l17.2,0c1.5,0.2,1.7,0.6,1.7,2.3c0,1.3,0,3.2,0,6.1l0,27v22.6c0,0.8,0.6,1.5,1.4,1.5h4.3
			c0.8,0,1.4-0.7,1.4-1.5V74c0,0,0,0,0,0l0-29.1c0.1-2.8-0.4-3.5,2.2-3.5l16.2,0C428.4,41.4,427.6,40.8,427.6,35.6z M170.6,39.1
			c-3.9-3.1-6.7-4.2-11.9-4.8c-0.7-0.1-1.7-0.1-2.5-0.1l-19.9,0c-2.6,0-3.5,0-3.5,1.6v63.5c0,0.8,0.7,1.5,1.5,1.5h4.5
			c0.8,0,1.5-0.7,1.5-1.5V77.1c0-0.8,0.4-1.5,1.3-1.5c1.2,0,1.9,0,3.1,0c13.4,0.1,24.5,1.3,30.8-11.8
			C179.9,54.7,176.4,43.8,170.6,39.1z M154.5,68.5h-12.9c-1,0-1.8-0.7-1.8-1.8v-24c0-1,0.3-1.3,1.3-1.3h15.5
			c5.4,0,10.3,4.1,11.9,7.2C172.9,57.2,167.8,68.5,154.5,68.5z"/>
	</g>
</g>
<polyline class="st2" points="472.6,11.9 485.1,22.9 496.7,11.8 "/>
</svg>
